<?xml version="1.0" encoding="utf-8"?>
<!-- Generator: Adobe Illustrator 24.3.0, SVG Export Plug-In . SVG Version: 6.00 Build 0)  -->
<svg version="1.1" id="MailJerry_Logo" xmlns="http://www.w3.org/2000/svg" xmlns:xlink="http://www.w3.org/1999/xlink" x="0px"
	 y="0px" width="776px" height="176px" viewBox="0 0 776 176" style="enable-background:new 0 0 776 176;" xml:space="preserve">
<style type="text/css">
	.st0{fill:#FFFFFF;}
	.st1{fill:#20299F;}
	.st2{fill:#0093FF;}
	.st3{fill:#20299F;stroke:#20299F;stroke-miterlimit:10;}
</style>
<path class="st0" d="M118.8,142c0,0-2.1-63.7-2.1-86c0,22.4-21,40.5-46.8,40.5C44,96.5,23.1,78.4,23.1,56
	C23.1,78.4,24.2,142,118.8,142z"/>
<path class="st1" d="M275.8,134.6H254l-1.6-36.7c-0.5-8.8-0.7-16.6-0.7-23.4c0-5.2,0.1-10.2,0.4-14.9l-14.5,65.1h-21l-15.4-65.1
	c0.5,7.9,0.8,15.3,0.8,22.2c0,5.2-0.1,10.7-0.4,16.4l-1.6,36.4h-21.7l7-93.8h28l14.1,63.6l13.1-63.6h28.2L275.8,134.6z"/>
<path class="st1" d="M351,119.7c0.8,1.3,2,2.2,3.7,2.8l-4.5,13.9c-4.4-0.4-8-1.3-10.8-2.9s-5-4.1-6.5-7.5
	c-4.7,7.2-11.9,10.8-21.7,10.8c-7.1,0-12.8-2.1-17.1-6.2c-4.2-4.1-6.4-9.6-6.4-16.2c0-7.9,2.9-13.9,8.7-18c5.8-4.2,14.1-6.2,25-6.2
	h7.3v-3.1c0-4.2-0.9-7.2-2.7-8.7c-1.8-1.6-5-2.4-9.5-2.4c-2.3,0-5.2,0.3-8.5,1s-6.8,1.6-10.3,2.8l-4.9-14.1c4.5-1.7,9.1-3,13.9-3.9
	c4.7-0.9,9.1-1.4,13.2-1.4c10.3,0,17.8,2.1,22.6,6.4c4.8,4.2,7.2,10.6,7.2,19.1v27.9C349.9,116.4,350.3,118.4,351,119.7z
	 M328.9,114.7V102h-5.3c-4.9,0-8.5,0.9-10.9,2.6s-3.6,4.4-3.6,8c0,2.9,0.7,5.1,2.2,6.7s3.5,2.4,6.2,2.4
	C322.4,121.6,326.2,119.3,328.9,114.7z"/>
<path class="st1" d="M390.7,28.2c2.4,2.3,3.6,5.2,3.6,8.7s-1.2,6.4-3.6,8.7c-2.4,2.3-5.4,3.5-9.1,3.5c-3.7,0-6.7-1.2-9.1-3.5
	c-2.3-2.3-3.5-5.2-3.5-8.7s1.2-6.4,3.5-8.7c2.3-2.3,5.4-3.5,9.1-3.5C385.3,24.8,388.3,25.9,390.7,28.2z M392.4,62.7v71.9H371V62.7
	H392.4z"/>
<path class="st1" d="M417.8,131.5c-3.5-3.6-5.2-8.6-5.2-15.2V34.1l21.4-2.3v83.7c0,3,1.2,4.5,3.7,4.5c1.3,0,2.4-0.2,3.5-0.7
	l4.2,15.2c-3.9,1.6-8.2,2.4-13,2.4C426.1,136.9,421.2,135.1,417.8,131.5z"/>
<path class="st2" d="M483.8,120.4c0,7.5-1.3,13.7-4,18.5c-2.7,4.9-6.2,8.7-10.6,11.4c-4.4,2.8-9.6,5.1-15.6,7.1l-6-15.7
	c4-1.5,6.9-3.3,8.9-5.3s3.3-4.3,4-6.9s1-6,1-10V40.7h22.2L483.8,120.4L483.8,120.4z"/>
<path class="st2" d="M566.7,104.9h-44.5c0.7,6,2.4,10.3,5.1,12.7s6.5,3.7,11.2,3.7c2.9,0,5.7-0.5,8.4-1.6c2.7-1,5.6-2.6,8.8-4.8
	l8.8,11.9c-8.4,6.7-17.7,10-28,10c-11.6,0-20.6-3.4-26.8-10.3s-9.3-16.1-9.3-27.6c0-7.3,1.3-13.9,3.9-19.7
	c2.6-5.8,6.5-10.4,11.5-13.8c5.1-3.4,11.1-5.1,18.1-5.1c10.4,0,18.5,3.2,24.4,9.7s8.8,15.5,8.8,27.1
	C567.2,100.2,567,102.8,566.7,104.9z M546.2,91.1c-0.2-11-4.1-16.5-11.6-16.5c-3.7,0-6.6,1.4-8.6,4.1s-3.3,7.2-3.7,13.4h24v-1H546.2
	z"/>
<path class="st2" d="M629.4,61.6L626,82.3c-2.7-0.6-4.9-0.9-6.5-0.9c-4.2,0-7.5,1.5-9.7,4.4s-3.9,7.3-5.2,13.2v35.6h-21.4V62.7h18.7
	l1.8,13.9c1.6-5,4.1-8.9,7.4-11.7c3.3-2.8,7-4.3,11.2-4.3C624.9,60.7,627.3,61,629.4,61.6z"/>
<path class="st2" d="M687.8,61.6l-3.4,20.7c-2.7-0.6-4.9-0.9-6.5-0.9c-4.2,0-7.5,1.5-9.7,4.4s-3.9,7.3-5.2,13.2v35.6h-21.4V62.7
	h18.7l1.8,13.9c1.6-5,4.1-8.9,7.4-11.7c3.3-2.8,7-4.3,11.2-4.3C683.2,60.7,685.6,61,687.8,61.6z"/>
<path class="st2" d="M739.6,134.7c-2.9,9.3-7.6,16.4-14.1,21.5c-6.5,5-15.3,7.8-26.3,8.5l-2.3-15c6.9-0.9,11.9-2.4,15.2-4.6
	s5.9-5.6,7.9-10.4h-7.3l-21.9-71.9h22.7l12.9,58.2l14.1-58.2h22.1L739.6,134.7z"/>
<path id="Belly" class="st2" d="M116.5,142c-14.7-7.9-24.5-21.4-24.5-36.8c0-2.4,0.3-4.8,0.7-7.2c-6.9,2.9-14.6,4.5-22.8,4.5
	c-18.9,0-35.6-8.8-45-21.9c5.2,27.1,24.2,61.4,93.7,61.4l0,0C118.1,142,117.3,142,116.5,142z"/>
<path id="Face" class="st0" d="M70.1,96.5c26,0,47-18.1,47-40.5c0-11.2-5.3-21.3-13.8-28.7c-3.5,0-24.9,1-29.7,18.7
	c-1.2,4.3-1.1,8.6-0.1,12.5l0.4,2.4c0,2.4-2.3,4.4-5,4.4l0,0l0,0l0,0l0,0c-2.8,0-5-2-5-4.4l0.4-2.4c1-3.9,1.1-8.1-0.1-12.5
	C60,30.8,43.6,28,36.9,27.4C28.5,34.7,23.2,44.8,23.2,56l0.1,2.5C24.7,79.7,45.1,96.5,70.1,96.5z"/>
<path id="Eye_1_" class="st3" d="M44.9,47.9c-4.1,0-7.5,3.4-7.5,7.5s3.4,7.5,7.5,7.5s7.5-3.4,7.5-7.5S49,47.9,44.9,47.9z"/>
<path id="Eye" class="st3" d="M93.9,46.7c-4.1,0-7.5,3.4-7.5,7.5s3.4,7.5,7.5,7.5s7.5-3.4,7.5-7.5C101.4,50,98,46.7,93.9,46.7z"/>
<path id="Body" class="st1" d="M123,58.8c0-0.3,0-0.6,0-0.9v-3.6C121.9,29.5,98.6,9.6,70.1,9.6c-29.2,0-53,20.9-53,46.5
	c0,10.1-0.1,33.7,13.1,54.1c13.5,20.9,36.9,33.2,69.7,36.5H57.2v7.3H123V63.9C123,62,123,60.3,123,58.8z M23.1,56
	c0-11.1,5.2-21.2,13.7-28.6C43.5,27.9,60,30.8,64.1,46c1.2,4.3,1.1,8.6,0.1,12.5l-0.4,2.4c0,2.4,2.3,4.4,5,4.4l0,0l0,0l0,0l0,0
	c2.8,0,5-2,5-4.4l-0.4-2.4c-1-3.9-1.1-8.1,0.1-12.5c4.8-17.7,26.2-18.6,29.7-18.7C111.7,34.6,117,44.8,117,56
	c0,22.4-21,40.5-47,40.5c-25,0-45.4-16.8-46.9-38L23.1,56z M25.1,80.6c9.4,13.2,26,21.9,45,21.9c8.1,0,15.9-1.6,22.8-4.5
	c-0.5,2.3-0.7,4.7-0.7,7.2c0,15.4,9.7,28.9,24.5,36.8c0.8,0,1.5,0,2.3,0l0,0C49.3,142,30.3,107.7,25.1,80.6z"/>
</svg>
